<svg width="20" height="21" viewBox="0 0 20 21" fill="none" xmlns="http://www.w3.org/2000/svg">
<path d="M8.39282 1.92871C8.25074 1.92871 8.11448 1.98515 8.01402 2.08562C7.91355 2.18608 7.85711 2.32234 7.85711 2.46443C7.85711 2.60651 7.91355 2.74277 8.01402 2.84323C8.11448 2.9437 8.25074 3.00014 8.39282 3.00014H9.46425V18.0001H8.39282C8.25074 18.0001 8.11448 18.0566 8.01402 18.157C7.91355 18.2575 7.85711 18.3938 7.85711 18.5359C7.85711 18.6779 7.91355 18.8142 8.01402 18.9147C8.11448 19.0151 8.25074 19.0716 8.39282 19.0716H11.6071C11.7492 19.0716 11.8855 19.0151 11.9859 18.9147C12.0864 18.8142 12.1428 18.6779 12.1428 18.5359C12.1428 18.3938 12.0864 18.2575 11.9859 18.157C11.8855 18.0566 11.7492 18.0001 11.6071 18.0001H10.5357V3.00014H11.6071C11.7492 3.00014 11.8855 2.9437 11.9859 2.84323C12.0864 2.74277 12.1428 2.60651 12.1428 2.46443C12.1428 2.32234 12.0864 2.18608 11.9859 2.08562C11.8855 1.98515 11.7492 1.92871 11.6071 1.92871H8.39282ZM4.46425 4.80014H8.74997V5.87157H4.46425C4.13273 5.87157 3.81479 6.00326 3.58037 6.23768C3.34595 6.47211 3.21425 6.79005 3.21425 7.12157V13.9073C3.21425 14.5973 3.77425 15.1573 4.46425 15.1573H8.74997V16.2287H4.46425C3.84857 16.2287 3.25811 15.9841 2.82275 15.5488C2.3874 15.1134 2.14282 14.523 2.14282 13.9073V7.12157C2.14282 6.50589 2.3874 5.91542 2.82275 5.48007C3.25811 5.04472 3.84857 4.80014 4.46425 4.80014ZM15.5357 15.1573H11.25V16.2287H15.5357C16.1514 16.2287 16.7418 15.9841 17.1772 15.5488C17.6125 15.1134 17.8571 14.523 17.8571 13.9073V7.12157C17.8571 6.50589 17.6125 5.91542 17.1772 5.48007C16.7418 5.04472 16.1514 4.80014 15.5357 4.80014H11.25V5.87157H15.5357C16.2257 5.87157 16.7857 6.43085 16.7857 7.12157V13.9073C16.7857 14.2388 16.654 14.5567 16.4196 14.7912C16.1851 15.0256 15.8672 15.1573 15.5357 15.1573Z" fill="#020F13"/>
</svg>
