<svg width="25" height="25" viewBox="0 0 25 25" fill="none" xmlns="http://www.w3.org/2000/svg">
<path d="M5.5 13.2592C5.5 11.9012 5.5 11.2222 5.774 10.6252C6.049 10.0282 6.564 9.58722 7.595 8.70322L8.595 7.84622C10.46 6.24922 11.39 5.44922 12.5 5.44922C13.61 5.44922 14.541 6.24822 16.405 7.84522L17.405 8.70222C18.435 9.58622 18.951 10.0272 19.225 10.6242C19.5 11.2212 19.5 11.9002 19.5 13.2582V17.4992C19.5 19.3852 19.5 20.3272 18.914 20.9132C18.328 21.4992 17.386 21.4992 15.5 21.4992H9.5C7.614 21.4992 6.672 21.4992 6.086 20.9132C5.5 20.3272 5.5 19.3852 5.5 17.4992V13.2592Z" stroke="#0096BB"/>
<path d="M15 21.5V16.5C15 16.2348 14.8946 15.9804 14.7071 15.7929C14.5196 15.6054 14.2652 15.5 14 15.5H11C10.7348 15.5 10.4804 15.6054 10.2929 15.7929C10.1054 15.9804 10 16.2348 10 16.5V21.5" stroke="#0096BB" stroke-linecap="round" stroke-linejoin="round"/>
</svg>
