<svg width="20" height="21" viewBox="0 0 20 21" fill="none" xmlns="http://www.w3.org/2000/svg">
<path fill-rule="evenodd" clip-rule="evenodd" d="M6.5 4.0415H6.47325C5.79588 4.0415 5.24953 4.0415 4.80711 4.07764C4.35158 4.11486 3.95146 4.1935 3.58128 4.38211C2.99328 4.68171 2.51521 5.15978 2.21561 5.74779C2.02699 6.11796 1.94836 6.51809 1.91113 6.97361C1.87499 7.41604 1.87499 7.96238 1.875 8.63974V8.6665V12.3332V12.3599C1.87499 13.0373 1.87499 13.5837 1.91113 14.0261C1.94836 14.4816 2.02699 14.8817 2.21561 15.2519C2.51521 15.8399 2.99328 16.3179 3.58128 16.6176C3.95146 16.8062 4.35158 16.8848 4.80711 16.922C5.24953 16.9582 5.79588 16.9582 6.47323 16.9582H6.5H13.5H13.5267C14.2042 16.9582 14.7505 16.9582 15.1929 16.922C15.6484 16.8848 16.0485 16.8062 16.4187 16.6176C17.0067 16.3179 17.4847 15.8399 17.7844 15.2519C17.973 14.8817 18.0517 14.4816 18.0888 14.0261C18.125 13.5837 18.125 13.0373 18.125 12.3599V12.3332V8.6665V8.63974C18.125 7.96238 18.125 7.41604 18.0888 6.97361C18.0517 6.51809 17.973 6.11796 17.7844 5.74779C17.4847 5.15978 17.0067 4.68171 16.4187 4.38211C16.0485 4.1935 15.6484 4.11486 15.1929 4.07764C14.7505 4.0415 14.2041 4.0415 13.5267 4.0415H13.5H6.5ZM4.14877 5.49587C4.31337 5.412 4.53067 5.3544 4.9089 5.32349C5.29443 5.29199 5.78963 5.2915 6.5 5.2915H13.5C14.2104 5.2915 14.7056 5.29199 15.0911 5.32349C15.4693 5.3544 15.6867 5.412 15.8512 5.49587C16.0197 5.58167 16.173 5.69187 16.3068 5.822C16.278 5.84235 16.2505 5.86542 16.2247 5.89123L12.3865 9.7295C11.8842 10.2318 11.5337 10.5816 11.2387 10.8319C10.9495 11.0775 10.7551 11.1904 10.5794 11.2475C10.2028 11.3699 9.79717 11.3699 9.42058 11.2475C9.24492 11.1904 9.0505 11.0775 8.76125 10.8319C8.46633 10.5816 8.11583 10.2318 7.61352 9.7295L3.77528 5.89123C3.74947 5.86542 3.72197 5.84235 3.69313 5.822C3.827 5.69187 3.98037 5.58167 4.14877 5.49587ZM3.1597 7.04341C3.15877 7.05395 3.15787 7.06461 3.15698 7.0754C3.12548 7.46093 3.125 7.95613 3.125 8.6665V12.3332C3.125 13.0436 3.12548 13.5388 3.15698 13.9243C3.18789 14.3025 3.2455 14.5198 3.32937 14.6844C3.50913 15.0372 3.79597 15.324 4.14877 15.5038C4.31337 15.5877 4.53067 15.6453 4.9089 15.6762C5.29443 15.7077 5.78963 15.7082 6.5 15.7082H13.5C14.2104 15.7082 14.7056 15.7077 15.0911 15.6762C15.4693 15.6453 15.6867 15.5877 15.8512 15.5038C16.204 15.324 16.4908 15.0372 16.6707 14.6844C16.7545 14.5198 16.8121 14.3025 16.843 13.9243C16.8745 13.5388 16.875 13.0436 16.875 12.3332V8.6665C16.875 7.95613 16.8745 7.46093 16.843 7.0754C16.8422 7.06461 16.8413 7.05395 16.8403 7.04342L13.2703 10.6133L13.2514 10.6323C12.7725 11.1112 12.3862 11.4976 12.0477 11.7848C11.6993 12.0807 11.3608 12.308 10.9657 12.4363C10.3381 12.6403 9.66192 12.6403 9.03433 12.4363C8.63917 12.308 8.30067 12.0807 7.95224 11.7848C7.61384 11.4976 7.22753 11.1113 6.74858 10.6323L6.72963 10.6133L3.1597 7.04341Z" fill="#020F13"/>
</svg>
