<svg width="20" height="21" viewBox="0 0 20 21" fill="none" xmlns="http://www.w3.org/2000/svg">
<path d="M17.3117 13.0238L13.6211 11.3699C13.4539 11.2983 13.2714 11.2695 13.0903 11.2861C12.9091 11.3028 12.735 11.3643 12.5836 11.4653C12.5683 11.4752 12.5537 11.4861 12.5399 11.4981L10.6109 13.1387C10.5909 13.1496 10.5687 13.1557 10.5459 13.1565C10.5231 13.1573 10.5004 13.1528 10.4797 13.1434C9.23985 12.5449 7.95548 11.2684 7.3547 10.0457C7.34469 10.0253 7.33949 10.0028 7.33949 9.9801C7.33949 9.95735 7.34469 9.9349 7.3547 9.91447L9.00079 7.96135C9.01262 7.94691 9.02358 7.93178 9.0336 7.91604C9.13312 7.76409 9.19324 7.58974 9.20851 7.40875C9.22379 7.22775 9.19375 7.0458 9.1211 6.87932L7.47892 3.19494C7.38566 2.97745 7.22437 2.79607 7.01927 2.67802C6.81418 2.55998 6.57632 2.51164 6.34142 2.54025C5.3205 2.67447 4.38338 3.17583 3.70518 3.95065C3.02699 4.72546 2.65412 5.72071 2.65626 6.75041C2.65626 12.8676 7.63282 17.8442 13.75 17.8442C14.7797 17.8461 15.7748 17.4732 16.5496 16.795C17.3244 16.1169 17.8258 15.1799 17.9602 14.159C17.9887 13.9252 17.941 13.6884 17.8242 13.4839C17.7074 13.2794 17.5276 13.118 17.3117 13.0238ZM13.75 16.9067C8.15001 16.9067 3.59376 12.3504 3.59376 6.75041C3.59115 5.94879 3.88048 5.17365 4.4077 4.56979C4.93492 3.96594 5.66396 3.5747 6.4586 3.46916H6.47657C6.50805 3.46975 6.53863 3.47984 6.56428 3.4981C6.58993 3.51636 6.60946 3.54195 6.62032 3.5715L8.26876 7.25197C8.27816 7.27244 8.28303 7.29469 8.28303 7.31721C8.28303 7.33973 8.27816 7.36198 8.26876 7.38244L6.61954 9.34025C6.6073 9.35428 6.59607 9.36916 6.58595 9.38479C6.48275 9.54233 6.42198 9.72385 6.40952 9.91178C6.39707 10.0997 6.43335 10.2877 6.51485 10.4574C7.20782 11.8762 8.63751 13.2949 10.0719 13.9879C10.2427 14.069 10.4315 14.1044 10.6201 14.0907C10.8086 14.077 10.9904 14.0147 11.1477 13.9098C11.1625 13.8996 11.1774 13.8887 11.1914 13.877L13.1195 12.2363C13.1386 12.2261 13.1596 12.2201 13.1812 12.2188C13.2028 12.2174 13.2244 12.2208 13.2445 12.2285L16.9359 13.8824C16.9661 13.8953 16.9915 13.9173 17.0084 13.9453C17.0254 13.9734 17.0331 14.006 17.0305 14.0387C16.9255 14.8337 16.5346 15.5633 15.9309 16.0911C15.3272 16.6189 14.5519 16.9088 13.75 16.9067Z" fill="#020F13"/>
</svg>
