<svg width="18" height="19" viewBox="0 0 18 19" fill="none" xmlns="http://www.w3.org/2000/svg">
<path d="M13.4718 14.1409C13.6125 14.1128 13.725 14.0847 13.8656 14.0284C14.0062 13.9722 14.1187 13.944 14.2312 13.8878C14.4843 13.7753 14.7093 13.6347 14.9343 13.4659C15.3843 13.1565 15.75 12.7347 16.0312 12.2284C16.3125 11.7503 16.4812 11.1878 16.5093 10.6534C16.5375 10.3722 16.5093 10.119 16.4812 9.83779C16.4531 9.69717 16.425 9.58467 16.3968 9.44404C16.3687 9.30342 16.3125 9.19092 16.2843 9.05029L16.2562 9.44404C16.2562 9.58467 16.2281 9.69717 16.2 9.83779C16.1718 10.0909 16.1156 10.344 16.0593 10.569C15.9468 11.0472 15.7781 11.4972 15.525 11.919C15.2718 12.3409 14.9906 12.7347 14.625 13.1003C14.4562 13.269 14.2593 13.4378 14.0625 13.6065C13.9781 13.6909 13.8656 13.7753 13.7531 13.8597L13.4718 14.1409Z" fill="#42ADE2"/>
<path d="M13.5562 15.1534C13.6406 15.2097 13.7531 15.2378 13.8656 15.2659C13.9781 15.294 14.0625 15.3222 14.175 15.3222C14.3719 15.3503 14.5969 15.3784 14.8219 15.3503C15.2437 15.3222 15.6937 15.2097 16.0594 15.0128C16.4531 14.8159 16.7906 14.5065 17.0156 14.1409C17.1281 13.9722 17.2406 13.7753 17.325 13.5784C17.3531 13.494 17.3813 13.3815 17.4094 13.269C17.4094 13.1847 17.4375 13.1003 17.4375 12.9878C17.3531 13.0722 17.2969 13.1565 17.2406 13.2128C17.1562 13.2972 17.1 13.3815 17.0437 13.4378C16.9031 13.5784 16.7906 13.719 16.65 13.8315C16.3687 14.0847 16.0875 14.3097 15.75 14.4784C15.4406 14.6472 15.075 14.7878 14.7375 14.9003C14.5687 14.9565 14.3719 14.9847 14.175 15.0409C14.0906 15.069 13.9781 15.069 13.8937 15.0972C13.7531 15.1253 13.6687 15.1253 13.5562 15.1534Z" fill="#42ADE2"/>
<path d="M7.19995 1.48438C7.05933 1.5125 6.94683 1.56875 6.8062 1.625C6.66558 1.68125 6.55308 1.7375 6.44058 1.79375C6.18745 1.93437 5.96245 2.075 5.73745 2.24375C5.28745 2.58125 4.92183 3.03125 4.6687 3.5375C4.41558 4.04375 4.27495 4.60625 4.27495 5.14062C4.27495 5.42187 4.30308 5.675 4.35933 5.95625C4.38745 6.09687 4.41558 6.20937 4.47183 6.35C4.52808 6.49062 4.5562 6.60312 4.61245 6.71562L4.64058 6.32187C4.64058 6.18125 4.64058 6.06875 4.6687 5.92812L4.75308 5.16875C4.83745 4.69062 5.0062 4.2125 5.2312 3.7625C5.4562 3.3125 5.73745 2.91875 6.07495 2.55312C6.2437 2.35625 6.44058 2.1875 6.60933 1.99063C6.6937 1.90625 6.8062 1.82188 6.9187 1.7375L7.19995 1.48438Z" fill="#42ADE2"/>
<path d="M4.75317 1.37207C4.64067 1.4002 4.5563 1.42832 4.47192 1.48457C4.38755 1.5127 4.27505 1.56895 4.19067 1.6252C4.02192 1.7377 3.85317 1.8502 3.68442 1.99082C3.37505 2.27207 3.12192 2.60957 2.9813 3.00332C2.81255 3.39707 2.7563 3.81894 2.81255 4.24082C2.84067 4.43769 2.89692 4.63457 2.95317 4.83144C2.9813 4.91582 3.03755 5.02832 3.06567 5.11269C3.12192 5.19707 3.15005 5.28144 3.23442 5.36582V4.80332C3.23442 4.60644 3.26255 4.43769 3.26255 4.26894C3.3188 3.90332 3.37505 3.56582 3.51567 3.25645C3.6563 2.91895 3.82505 2.6377 4.02192 2.32832C4.13442 2.1877 4.24692 2.01895 4.35942 1.87832C4.41567 1.79395 4.47192 1.7377 4.5563 1.65332C4.61255 1.5127 4.69692 1.42832 4.75317 1.37207Z" fill="#42ADE2"/>
<path d="M15.1875 5.56228C15.75 5.81541 15.9469 6.49041 15.6937 7.05291L12.15 14.4498L10.1812 13.5217L13.725 6.09666C13.9781 5.53416 14.625 5.28103 15.1875 5.56228Z" fill="#FFDD67"/>
<path d="M5.8782 11.4404L3.79695 10.456L7.84695 2.01853C8.1282 1.45603 8.8032 1.20291 9.39382 1.48416C9.95632 1.76541 10.2094 2.44041 9.9282 3.03103L5.8782 11.4404Z" fill="#FFDD67"/>
<path d="M9.36567 1.45621C9.42192 1.48433 9.47817 1.51246 9.53442 1.56871C9.00005 1.42808 8.43755 1.68121 8.18442 2.18746L4.13442 10.625L3.7688 10.4562L7.8188 2.01871C8.10005 1.42808 8.77505 1.17496 9.36567 1.45621Z" fill="#EBA352"/>
<path d="M10.1811 13.4938L8.01552 12.4532L12.1499 3.84691C12.4311 3.25629 13.1624 2.97504 13.753 3.25629C14.3436 3.53754 14.5968 4.26879 14.3155 4.85941L10.1811 13.4938Z" fill="#FFDD67"/>
<path d="M13.7531 3.28423C13.8094 3.31235 13.8656 3.34048 13.9219 3.39673C13.3875 3.2561 12.7687 3.50923 12.5156 4.0436L9.95625 9.41548L9.3375 9.7811L12.15 3.87485C12.4313 3.2561 13.1344 3.00298 13.7531 3.28423Z" fill="#EBA352"/>
<path d="M8.35302 11.7779L6.1874 10.7373L10.3218 2.13104C10.603 1.54042 11.3343 1.25917 11.9249 1.56854C12.5155 1.84979 12.7686 2.58104 12.4874 3.17167L8.35302 11.7779Z" fill="#FFDD67"/>
<path d="M11.925 1.54057C11.9812 1.5687 12.0375 1.62495 12.0938 1.65307C11.5594 1.51245 10.9406 1.76557 10.6875 2.29995L7.79063 8.37495L7.17188 8.74057L10.3219 2.1312C10.6031 1.51245 11.3344 1.25932 11.925 1.54057Z" fill="#EBA352"/>
<path d="M15.1875 5.56265C15.2437 5.59078 15.3 5.6189 15.3562 5.67515C14.85 5.53453 14.3156 5.78765 14.0906 6.2939L11.9812 10.7095L11.3625 11.0752L13.725 6.12515C13.9781 5.53453 14.625 5.2814 15.1875 5.56265Z" fill="#EBA352"/>
<path d="M0.90003 4.71882C1.65941 4.1282 2.8969 4.77507 3.51565 6.80007C3.93753 8.20632 3.99378 8.6282 4.89378 9.05007L5.40003 8.00945C5.40003 8.00945 13.3875 11.8626 13.0782 12.4813C13.0782 12.4813 12.1219 15.4626 10.4907 16.8407C8.0719 18.9219 2.41878 16.7001 2.16566 11.3282C2.02503 8.20632 0.0844059 5.3657 0.90003 4.71882Z" fill="#FFDD67"/>
<path d="M0.899951 4.71885C1.04058 4.60635 1.20933 4.5501 1.37808 4.52197C1.34995 4.5501 1.2937 4.5501 1.26558 4.57822C0.421826 5.2251 1.2937 6.71572 1.77183 8.06572C2.16558 9.13447 2.50308 10.2313 2.44683 11.3001C2.22183 15.9688 6.9187 18.1907 9.7312 17.347C6.97495 18.5001 1.8562 16.3063 2.0812 11.4407C2.13745 10.372 1.82808 9.33135 1.4062 8.20635C0.956201 6.85635 0.0843258 5.36572 0.899951 4.71885Z" fill="#EBA352"/>
<path d="M4.64068 8.9375C6.38443 9.13438 8.94381 11.6375 7.14381 14.3656C8.46569 11.6094 6.30006 9.75313 4.92193 9.10625C4.78131 8.99375 4.64068 8.9375 4.64068 8.9375Z" fill="#EBA352"/>
</svg>
